# xmcd
#
# Track frame offsets: 
#        150
#        15299
#        30971
#        46737
#        62632
#        82087
#        95866
#        111410
#        126841
#        140696
#        158110
#
# Disc length: 2347 seconds
#
# Revision: 0
# Processed by: cddbd v1.5.2PL0 Copyright (c) Steve Scherf et al.
# Submitted via: ExactAudioCopy v0.95b4
#
DISCID=8c09290b
DTITLE=Covington, Bucky - Bucky Covington
DYEAR=2007
DGENRE=Country
TTITLE0=American Friday Night
TTITLE1=A Different World
TTITLE2=I'll Walk
TTITLE3=Back When We Were Gods
TTITLE4=Ain't No Thing
TTITLE5=I'm Good
TTITLE6=Empty Handed
TTITLE7=Hometown
TTITLE8=It's Good To Be Us
TTITLE9=Carolina Blue
TTITLE10=The Bible And The Belt
EXTD=
EXTT0=
EXTT1=
EXTT2=
EXTT3=
EXTT4=
EXTT5=
EXTT6=
EXTT7=
EXTT8=
EXTT9=
EXTT10=
PLAYORDER=
